<svg width="66" height="62" viewBox="0 0 66 62" fill="none" xmlns="http://www.w3.org/2000/svg">
<ellipse cx="11.75" cy="3.14286" rx="3.25" ry="3.14286" fill="#CCCCCC"/>
<ellipse cx="20.25" cy="3.14286" rx="3.25" ry="3.14286" fill="#CCCCCC"/>
<ellipse cx="45.75" cy="3.14286" rx="3.25" ry="3.14286" fill="#CCCCCC"/>
<ellipse cx="54.25" cy="3.14286" rx="3.25" ry="3.14286" fill="#CCCCCC"/>
<ellipse cx="3.25" cy="12.4285" rx="3.25" ry="3.14286" fill="#CCCCCC"/>
<ellipse cx="11.75" cy="12.4285" rx="3.25" ry="3.14286" fill="#CCCCCC"/>
<ellipse cx="20.25" cy="12.4285" rx="3.25" ry="3.14286" fill="#CCCCCC"/>
<ellipse cx="28.75" cy="12.4285" rx="3.25" ry="3.14286" fill="#CCCCCC"/>
<ellipse cx="37.25" cy="12.4285" rx="3.25" ry="3.14286" fill="#CCCCCC"/>
<ellipse cx="45.75" cy="12.4285" rx="3.25" ry="3.14286" fill="#CCCCCC"/>
<ellipse cx="54.25" cy="12.4285" rx="3.25" ry="3.14286" fill="#CCCCCC"/>
<ellipse cx="62.75" cy="12.4285" rx="3.25" ry="3.14286" fill="#CCCCCC"/>
<ellipse cx="3.25" cy="21.7144" rx="3.25" ry="3.14286" fill="#CCCCCC"/>
<ellipse cx="11.75" cy="21.7144" rx="3.25" ry="3.14286" fill="#CCCCCC"/>
<ellipse cx="20.25" cy="21.7144" rx="3.25" ry="3.14286" fill="#CCCCCC"/>
<ellipse cx="28.75" cy="21.7144" rx="3.25" ry="3.14286" fill="#CCCCCC"/>
<ellipse cx="37.25" cy="21.7144" rx="3.25" ry="3.14286" fill="#CCCCCC"/>
<ellipse cx="45.75" cy="21.7144" rx="3.25" ry="3.14286" fill="#CCCCCC"/>
<ellipse cx="54.25" cy="21.7144" rx="3.25" ry="3.14286" fill="#CCCCCC"/>
<ellipse cx="62.75" cy="21.7144" rx="3.25" ry="3.14286" fill="#CCCCCC"/>
<ellipse cx="3.25" cy="31" rx="3.25" ry="3.14286" fill="#CCCCCC"/>
<ellipse cx="11.75" cy="31" rx="3.25" ry="3.14286" fill="#CCCCCC"/>
<ellipse cx="20.25" cy="31" rx="3.25" ry="3.14286" fill="#CCCCCC"/>
<ellipse cx="28.75" cy="31" rx="3.25" ry="3.14286" fill="#CCCCCC"/>
<ellipse cx="37.25" cy="31" rx="3.25" ry="3.14286" fill="#CCCCCC"/>
<ellipse cx="45.75" cy="31" rx="3.25" ry="3.14286" fill="#CCCCCC"/>
<ellipse cx="54.25" cy="31" rx="3.25" ry="3.14286" fill="#CCCCCC"/>
<ellipse cx="62.75" cy="31" rx="3.25" ry="3.14286" fill="#CCCCCC"/>
<ellipse cx="11.75" cy="40.2857" rx="3.25" ry="3.14286" fill="#CCCCCC"/>
<ellipse cx="20.25" cy="40.2857" rx="3.25" ry="3.14286" fill="#CCCCCC"/>
<ellipse cx="28.75" cy="40.2857" rx="3.25" ry="3.14286" fill="#CCCCCC"/>
<ellipse cx="37.25" cy="40.2857" rx="3.25" ry="3.14286" fill="#CCCCCC"/>
<ellipse cx="45.75" cy="40.2857" rx="3.25" ry="3.14286" fill="#CCCCCC"/>
<ellipse cx="54.25" cy="40.2857" rx="3.25" ry="3.14286" fill="#CCCCCC"/>
<ellipse cx="20.25" cy="49.5713" rx="3.25" ry="3.14286" fill="#CCCCCC"/>
<ellipse cx="28.75" cy="49.5713" rx="3.25" ry="3.14286" fill="#CCCCCC"/>
<ellipse cx="37.25" cy="49.5713" rx="3.25" ry="3.14286" fill="#CCCCCC"/>
<ellipse cx="45.75" cy="49.5713" rx="3.25" ry="3.14286" fill="#CCCCCC"/>
<ellipse cx="28.75" cy="58.8572" rx="3.25" ry="3.14286" fill="#CCCCCC"/>
<ellipse cx="37.25" cy="58.8572" rx="3.25" ry="3.14286" fill="#CCCCCC"/>
</svg>
