<svg width="65" height="71" viewBox="0 0 65 71" fill="none" xmlns="http://www.w3.org/2000/svg">
<ellipse cx="3.1875" cy="3.05556" rx="3.1875" ry="3.05556" fill="#CCCCCC"/>
<ellipse cx="11.5625" cy="3.05556" rx="3.1875" ry="3.05556" fill="#CCCCCC"/>
<ellipse cx="53.4375" cy="3.05556" rx="3.1875" ry="3.05556" fill="#CCCCCC"/>
<ellipse cx="61.8125" cy="3.05556" rx="3.1875" ry="3.05556" fill="#CCCCCC"/>
<ellipse cx="3.1875" cy="11.1666" rx="3.1875" ry="3.05556" fill="#CCCCCC"/>
<ellipse cx="11.5625" cy="11.1666" rx="3.1875" ry="3.05556" fill="#CCCCCC"/>
<ellipse cx="53.4375" cy="11.1666" rx="3.1875" ry="3.05556" fill="#CCCCCC"/>
<ellipse cx="61.8125" cy="11.1666" rx="3.1875" ry="3.05556" fill="#CCCCCC"/>
<ellipse cx="11.5625" cy="19.2777" rx="3.1875" ry="3.05556" fill="#CCCCCC"/>
<ellipse cx="19.9375" cy="27.3888" rx="3.1875" ry="3.05556" fill="#CCCCCC"/>
<ellipse cx="45.0625" cy="27.3888" rx="3.1875" ry="3.05556" fill="#CCCCCC"/>
<ellipse cx="28.3125" cy="35.4999" rx="3.1875" ry="3.05556" fill="#CCCCCC"/>
<ellipse cx="36.6875" cy="35.4999" rx="3.1875" ry="3.05556" fill="#CCCCCC"/>
<ellipse cx="28.3125" cy="43.6112" rx="3.1875" ry="3.05556" fill="#CCCCCC"/>
<ellipse cx="36.6875" cy="43.6112" rx="3.1875" ry="3.05556" fill="#CCCCCC"/>
<ellipse cx="19.9375" cy="51.7223" rx="3.1875" ry="3.05556" fill="#CCCCCC"/>
<ellipse cx="45.0625" cy="51.7223" rx="3.1875" ry="3.05556" fill="#CCCCCC"/>
<ellipse cx="3.1875" cy="59.8334" rx="3.1875" ry="3.05556" fill="#CCCCCC"/>
<ellipse cx="11.5625" cy="59.8334" rx="3.1875" ry="3.05556" fill="#CCCCCC"/>
<ellipse cx="53.4375" cy="59.8334" rx="3.1875" ry="3.05556" fill="#CCCCCC"/>
<ellipse cx="61.8125" cy="59.8334" rx="3.1875" ry="3.05556" fill="#CCCCCC"/>
<ellipse cx="3.1875" cy="67.9445" rx="3.1875" ry="3.05556" fill="#CCCCCC"/>
<ellipse cx="11.5625" cy="67.9445" rx="3.1875" ry="3.05556" fill="#CCCCCC"/>
<ellipse cx="53.4375" cy="67.9445" rx="3.1875" ry="3.05556" fill="#CCCCCC"/>
<ellipse cx="61.8125" cy="67.9445" rx="3.1875" ry="3.05556" fill="#CCCCCC"/>
</svg>
