<svg width="69" height="60" viewBox="0 0 69 60" fill="none" xmlns="http://www.w3.org/2000/svg">
<ellipse cx="21.1875" cy="3.42857" rx="3.4375" ry="3.42857" fill="#CCCCCC"/>
<ellipse cx="30.0625" cy="3.42857" rx="3.4375" ry="3.42857" fill="#CCCCCC"/>
<ellipse cx="38.9375" cy="3.42857" rx="3.4375" ry="3.42857" fill="#CCCCCC"/>
<ellipse cx="47.8125" cy="3.42857" rx="3.4375" ry="3.42857" fill="#CCCCCC"/>
<ellipse cx="21.1875" cy="12.2857" rx="3.4375" ry="3.42857" fill="#CCCCCC"/>
<ellipse cx="30.0625" cy="12.2857" rx="3.4375" ry="3.42857" fill="#CCCCCC"/>
<ellipse cx="38.9375" cy="12.2857" rx="3.4375" ry="3.42857" fill="#CCCCCC"/>
<ellipse cx="47.8125" cy="12.2857" rx="3.4375" ry="3.42857" fill="#CCCCCC"/>
<ellipse cx="3.4375" cy="21.1429" rx="3.4375" ry="3.42857" fill="#CCCCCC"/>
<ellipse cx="12.3125" cy="21.1429" rx="3.4375" ry="3.42857" fill="#CCCCCC"/>
<ellipse cx="21.1875" cy="21.1429" rx="3.4375" ry="3.42857" fill="#CCCCCC"/>
<ellipse cx="30.0625" cy="21.1429" rx="3.4375" ry="3.42857" fill="#CCCCCC"/>
<ellipse cx="38.9375" cy="21.1429" rx="3.4375" ry="3.42857" fill="#CCCCCC"/>
<ellipse cx="47.8125" cy="21.1429" rx="3.4375" ry="3.42857" fill="#CCCCCC"/>
<ellipse cx="56.6875" cy="21.1429" rx="3.4375" ry="3.42857" fill="#CCCCCC"/>
<ellipse cx="65.5625" cy="21.1429" rx="3.4375" ry="3.42857" fill="#CCCCCC"/>
<ellipse cx="3.4375" cy="30.0001" rx="3.4375" ry="3.42857" fill="#CCCCCC"/>
<ellipse cx="12.3125" cy="30.0001" rx="3.4375" ry="3.42857" fill="#CCCCCC"/>
<ellipse cx="21.1875" cy="30.0001" rx="3.4375" ry="3.42857" fill="#CCCCCC"/>
<ellipse cx="47.8125" cy="30.0001" rx="3.4375" ry="3.42857" fill="#CCCCCC"/>
<ellipse cx="56.6875" cy="30.0001" rx="3.4375" ry="3.42857" fill="#CCCCCC"/>
<ellipse cx="65.5625" cy="30.0001" rx="3.4375" ry="3.42857" fill="#CCCCCC"/>
<ellipse cx="3.4375" cy="38.857" rx="3.4375" ry="3.42857" fill="#CCCCCC"/>
<ellipse cx="12.3125" cy="38.857" rx="3.4375" ry="3.42857" fill="#CCCCCC"/>
<ellipse cx="21.1875" cy="38.857" rx="3.4375" ry="3.42857" fill="#CCCCCC"/>
<ellipse cx="47.8125" cy="38.857" rx="3.4375" ry="3.42857" fill="#CCCCCC"/>
<ellipse cx="56.6875" cy="38.857" rx="3.4375" ry="3.42857" fill="#CCCCCC"/>
<ellipse cx="65.5625" cy="38.857" rx="3.4375" ry="3.42857" fill="#CCCCCC"/>
<ellipse cx="3.4375" cy="47.7142" rx="3.4375" ry="3.42857" fill="#CCCCCC"/>
<ellipse cx="12.3125" cy="47.7142" rx="3.4375" ry="3.42857" fill="#CCCCCC"/>
<ellipse cx="21.1875" cy="47.7142" rx="3.4375" ry="3.42857" fill="#CCCCCC"/>
<ellipse cx="30.0625" cy="47.7142" rx="3.4375" ry="3.42857" fill="#CCCCCC"/>
<ellipse cx="38.9375" cy="47.7142" rx="3.4375" ry="3.42857" fill="#CCCCCC"/>
<ellipse cx="47.8125" cy="47.7142" rx="3.4375" ry="3.42857" fill="#CCCCCC"/>
<ellipse cx="56.6875" cy="47.7142" rx="3.4375" ry="3.42857" fill="#CCCCCC"/>
<ellipse cx="65.5625" cy="47.7142" rx="3.4375" ry="3.42857" fill="#CCCCCC"/>
<ellipse cx="3.4375" cy="56.5714" rx="3.4375" ry="3.42857" fill="#CCCCCC"/>
<ellipse cx="12.3125" cy="56.5714" rx="3.4375" ry="3.42857" fill="#CCCCCC"/>
<ellipse cx="21.1875" cy="56.5714" rx="3.4375" ry="3.42857" fill="#CCCCCC"/>
<ellipse cx="30.0625" cy="56.5714" rx="3.4375" ry="3.42857" fill="#CCCCCC"/>
<ellipse cx="38.9375" cy="56.5714" rx="3.4375" ry="3.42857" fill="#CCCCCC"/>
<ellipse cx="47.8125" cy="56.5714" rx="3.4375" ry="3.42857" fill="#CCCCCC"/>
<ellipse cx="56.6875" cy="56.5714" rx="3.4375" ry="3.42857" fill="#CCCCCC"/>
<ellipse cx="65.5625" cy="56.5714" rx="3.4375" ry="3.42857" fill="#CCCCCC"/>
</svg>
