<svg width="67" height="65" viewBox="0 0 67 65" fill="none" xmlns="http://www.w3.org/2000/svg">
<ellipse cx="29.1875" cy="3.1875" rx="3.3125" ry="3.1875" fill="#CCCCCC"/>
<ellipse cx="37.8125" cy="3.1875" rx="3.3125" ry="3.1875" fill="#CCCCCC"/>
<ellipse cx="20.5625" cy="11.5625" rx="3.3125" ry="3.1875" fill="#CCCCCC"/>
<ellipse cx="29.1875" cy="11.5625" rx="3.3125" ry="3.1875" fill="#CCCCCC"/>
<ellipse cx="37.8125" cy="11.5625" rx="3.3125" ry="3.1875" fill="#CCCCCC"/>
<ellipse cx="46.4375" cy="11.5625" rx="3.3125" ry="3.1875" fill="#CCCCCC"/>
<ellipse cx="11.9375" cy="19.9375" rx="3.3125" ry="3.1875" fill="#CCCCCC"/>
<ellipse cx="20.5625" cy="19.9375" rx="3.3125" ry="3.1875" fill="#CCCCCC"/>
<ellipse cx="29.1875" cy="19.9375" rx="3.3125" ry="3.1875" fill="#CCCCCC"/>
<ellipse cx="37.8125" cy="19.9375" rx="3.3125" ry="3.1875" fill="#CCCCCC"/>
<ellipse cx="46.4375" cy="19.9375" rx="3.3125" ry="3.1875" fill="#CCCCCC"/>
<ellipse cx="55.0625" cy="19.9375" rx="3.3125" ry="3.1875" fill="#CCCCCC"/>
<ellipse cx="3.3125" cy="28.3125" rx="3.3125" ry="3.1875" fill="#CCCCCC"/>
<ellipse cx="11.9375" cy="28.3125" rx="3.3125" ry="3.1875" fill="#CCCCCC"/>
<ellipse cx="20.5625" cy="28.3125" rx="3.3125" ry="3.1875" fill="#CCCCCC"/>
<ellipse cx="29.1875" cy="28.3125" rx="3.3125" ry="3.1875" fill="#CCCCCC"/>
<ellipse cx="37.8125" cy="28.3125" rx="3.3125" ry="3.1875" fill="#CCCCCC"/>
<ellipse cx="46.4375" cy="28.3125" rx="3.3125" ry="3.1875" fill="#CCCCCC"/>
<ellipse cx="55.0625" cy="28.3125" rx="3.3125" ry="3.1875" fill="#CCCCCC"/>
<ellipse cx="63.6875" cy="28.3125" rx="3.3125" ry="3.1875" fill="#CCCCCC"/>
<ellipse cx="3.3125" cy="36.6875" rx="3.3125" ry="3.1875" fill="#CCCCCC"/>
<ellipse cx="11.9375" cy="36.6875" rx="3.3125" ry="3.1875" fill="#CCCCCC"/>
<ellipse cx="20.5625" cy="36.6875" rx="3.3125" ry="3.1875" fill="#CCCCCC"/>
<ellipse cx="29.1875" cy="36.6875" rx="3.3125" ry="3.1875" fill="#CCCCCC"/>
<ellipse cx="37.8125" cy="36.6875" rx="3.3125" ry="3.1875" fill="#CCCCCC"/>
<ellipse cx="46.4375" cy="36.6875" rx="3.3125" ry="3.1875" fill="#CCCCCC"/>
<ellipse cx="55.0625" cy="36.6875" rx="3.3125" ry="3.1875" fill="#CCCCCC"/>
<ellipse cx="63.6875" cy="36.6875" rx="3.3125" ry="3.1875" fill="#CCCCCC"/>
<ellipse cx="3.3125" cy="45.0625" rx="3.3125" ry="3.1875" fill="#CCCCCC"/>
<ellipse cx="11.9375" cy="45.0625" rx="3.3125" ry="3.1875" fill="#CCCCCC"/>
<ellipse cx="20.5625" cy="45.0625" rx="3.3125" ry="3.1875" fill="#CCCCCC"/>
<ellipse cx="46.4375" cy="45.0625" rx="3.3125" ry="3.1875" fill="#CCCCCC"/>
<ellipse cx="55.0625" cy="45.0625" rx="3.3125" ry="3.1875" fill="#CCCCCC"/>
<ellipse cx="63.6875" cy="45.0625" rx="3.3125" ry="3.1875" fill="#CCCCCC"/>
<ellipse cx="3.3125" cy="53.4375" rx="3.3125" ry="3.1875" fill="#CCCCCC"/>
<ellipse cx="11.9375" cy="53.4375" rx="3.3125" ry="3.1875" fill="#CCCCCC"/>
<ellipse cx="20.5625" cy="53.4375" rx="3.3125" ry="3.1875" fill="#CCCCCC"/>
<ellipse cx="46.4375" cy="53.4375" rx="3.3125" ry="3.1875" fill="#CCCCCC"/>
<ellipse cx="55.0625" cy="53.4375" rx="3.3125" ry="3.1875" fill="#CCCCCC"/>
<ellipse cx="63.6875" cy="53.4375" rx="3.3125" ry="3.1875" fill="#CCCCCC"/>
<ellipse cx="3.3125" cy="61.8125" rx="3.3125" ry="3.1875" fill="#CCCCCC"/>
<ellipse cx="11.9375" cy="61.8125" rx="3.3125" ry="3.1875" fill="#CCCCCC"/>
<ellipse cx="20.5625" cy="61.8125" rx="3.3125" ry="3.1875" fill="#CCCCCC"/>
<ellipse cx="46.4375" cy="61.8125" rx="3.3125" ry="3.1875" fill="#CCCCCC"/>
<ellipse cx="55.0625" cy="61.8125" rx="3.3125" ry="3.1875" fill="#CCCCCC"/>
<ellipse cx="63.6875" cy="61.8125" rx="3.3125" ry="3.1875" fill="#CCCCCC"/>
</svg>
