<svg width="70" height="61" viewBox="0 0 70 61" fill="none" xmlns="http://www.w3.org/2000/svg">
<circle cx="30.5" cy="3.5" r="3.5" fill="#CCCCCC"/>
<circle cx="48.5" cy="3.5" r="3.5" fill="#CCCCCC"/>
<circle cx="21.5" cy="12.5" r="3.5" fill="#CCCCCC"/>
<circle cx="39.5" cy="12.5" r="3.5" fill="#CCCCCC"/>
<circle cx="3.5" cy="21.5" r="3.5" fill="#CCCCCC"/>
<circle cx="12.5" cy="21.5" r="3.5" fill="#CCCCCC"/>
<circle cx="21.5" cy="21.5" r="3.5" fill="#CCCCCC"/>
<circle cx="30.5" cy="21.5" r="3.5" fill="#CCCCCC"/>
<circle cx="39.5" cy="21.5" r="3.5" fill="#CCCCCC"/>
<circle cx="48.5" cy="21.5" r="3.5" fill="#CCCCCC"/>
<circle cx="57.5" cy="21.5" r="3.5" fill="#CCCCCC"/>
<circle cx="66.5" cy="21.5" r="3.5" fill="#CCCCCC"/>
<circle cx="3.5" cy="30.5" r="3.5" fill="#CCCCCC"/>
<circle cx="12.5" cy="30.5" r="3.5" fill="#CCCCCC"/>
<circle cx="21.5" cy="30.5" r="3.5" fill="#CCCCCC"/>
<circle cx="30.5" cy="30.5" r="3.5" fill="#CCCCCC"/>
<circle cx="39.5" cy="30.5" r="3.5" fill="#CCCCCC"/>
<circle cx="48.5" cy="30.5" r="3.5" fill="#CCCCCC"/>
<circle cx="66.5" cy="30.5" r="3.5" fill="#CCCCCC"/>
<circle cx="3.5" cy="39.5" r="3.5" fill="#CCCCCC"/>
<circle cx="12.5" cy="39.5" r="3.5" fill="#CCCCCC"/>
<circle cx="21.5" cy="39.5" r="3.5" fill="#CCCCCC"/>
<circle cx="30.5" cy="39.5" r="3.5" fill="#CCCCCC"/>
<circle cx="39.5" cy="39.5" r="3.5" fill="#CCCCCC"/>
<circle cx="48.5" cy="39.5" r="3.5" fill="#CCCCCC"/>
<circle cx="57.5" cy="39.5" r="3.5" fill="#CCCCCC"/>
<circle cx="66.5" cy="39.5" r="3.5" fill="#CCCCCC"/>
<circle cx="3.5" cy="48.5" r="3.5" fill="#CCCCCC"/>
<circle cx="12.5" cy="48.5" r="3.5" fill="#CCCCCC"/>
<circle cx="21.5" cy="48.5" r="3.5" fill="#CCCCCC"/>
<circle cx="30.5" cy="48.5" r="3.5" fill="#CCCCCC"/>
<circle cx="39.5" cy="48.5" r="3.5" fill="#CCCCCC"/>
<circle cx="48.5" cy="48.5" r="3.5" fill="#CCCCCC"/>
<circle cx="12.5" cy="57.5" r="3.5" fill="#CCCCCC"/>
<circle cx="21.5" cy="57.5" r="3.5" fill="#CCCCCC"/>
<circle cx="30.5" cy="57.5" r="3.5" fill="#CCCCCC"/>
<circle cx="39.5" cy="57.5" r="3.5" fill="#CCCCCC"/>
</svg>
